<?xml version="1.0" encoding="UTF-8"?>
<svg id="_レイヤー_2" data-name="レイヤー 2" xmlns="http://www.w3.org/2000/svg" viewBox="0 0 196.1010564228 196.1010564228">
  <defs>
    <style>
      .cls-1 {
        fill: #fff;
      }

      .cls-2 {
        fill: #666;
      }
    </style>
  </defs>
  <g id="_レイヤー_2-2" data-name="レイヤー 2">
    <circle class="cls-1" cx="98.0505282114" cy="98.0505282114" r="98.0505282114"/>
  </g>
  <g id="_レイヤー_1-2" data-name="レイヤー 1">
    <g>
      <path class="cls-2" d="M141.2884899975,18.9085147932c-6.98046875.734375-10.1069335938,1.7900390625-14.6479492188,3.3312988281-2.22265625.7543945312-3.9375,1.4250488281-4.7138671875,1.7836914062-.9887695312.4467773438-1.947265625.9382324219-2.4223632812,1.4367675781-.0390625.0407714844-.1069335938.1101074219-.091796875.1459960938.0190429688.0458984375.2158203125.0754394531.5078125.0112304688,1.4633789062-.3225097656,5.330078125-1.2077636719,7.4482421875-1.8874511719,1.6801757812-.5393066406,9.1127929688-2.2878417969,11.3159179688-2.5134277344,5.8701171875-.6010742188,12.0888671875-.9575195312,18.1293945312-.6264648438.4990234375.0249023438.986328125.0593261719,1.4736328125.09375-1.0737304688-.8369140625-2.1645507812-1.6530761719-3.2734375-2.4458007812-3.212890625-.1220703125-7.3251953125-.0029296875-13.7255859375.6704101562Z"/>
      <path class="cls-2" d="M194.8099743725,112.8711612776c-7.53515625-1.2541503906-16.095703125-1.4963378906-23.5864257812-.755859375-.1401367188.0593261719-.2509765625.1540527344-.1743164062.2946777344.1557617188.33984375,1.482421875.8322753906,2.787109375,1.046875,2.8930664062.5283203125,5.896484375.4272460938,8.8256835938.4577636719,2.6142578125.0009765625,5.197265625.2224121094,7.7919921875.666015625,1.3681640625.2658691406,2.75390625.4934082031,4.1235351562.7783203125.1450195312-.8129882812.279296875-1.6296386719.4038085938-2.4494628906-.0571289062-.0114746094-.1137695312-.02734375-.1713867188-.0383300781Z"/>
      <path class="cls-2" d="M54.2323376537,185.7815616682c4.41796875,2.2109375,9.0258789062,4.09765625,13.7934570312,5.6296386719,6.1528320312.4545898438,12.5590820312.2578125,19.2915039062-.6745605469,25.1264648438-3.5766601562,49.1474609375-18.6665039062,74.73828125-18.4084472656.6655273438-.57421875,1.32421875-1.1560058594,1.974609375-1.7478027344-39.5883789062-3.5913085938-65.0161132812,27.8413085938-109.7978515625,15.201171875Z"/>
      <path class="cls-2" d="M31.7538220287,152.5479190901c-1.3354492188-1.0883789062-3.6162109375-3.091796875-4.8989257812-4.1052246094-.4731445312-.3742675781-1.7919921875-1.5981445312-2.0366210938-1.4084472656-.7456054688.5773925781,2.6787109375,4.515625,3.6333007812,5.673828125,48.0087890625,45.134765625,91.8569335938-19.3903808594,138.712890625-4.1923828125,3.9155273438,1.4799804688,7.7900390625,3.2370605469,11.6450195312,5.1433105469.5571289062-.8071289062,1.1040039062-1.6208496094,1.6372070312-2.4450683594-3.1279296875-1.6164550781-6.2236328125-3.1440429688-9.283203125-4.5163574219-48.7172851562-18.8715820312-89.9091796875,46.28125-139.4096679688,5.8503417969Z"/>
      <path class="cls-2" d="M124.877357185,60.8667667463c-2.0747070312-.2546386719-5.1538085938,1.3342285156-7.8374023438,1.1906738281-10.279296875-.5505371094-10.142578125-11.8745117188-18.3549804688-14.9584960938-2.1572265625-.8100585938-8.439453125-1.9143066406-10.7885742188-1.9855957031-1.69140625-.0512695312-4.0532226562.603515625-5.91015625.5334472656-10.0825195312-.380859375-7.9692382812-8.9702148438-2.2275390625-14.0209960938,1.869140625-1.6440429688,5.3798828125-3.5815429688,7.708984375-4.3581542969,1.2075195312-.4030761719,2.9057617188-.3132324219,3.5600585938-.5632324219.32421875-.1237792969.6850585938-.2731933594.6186523438-.5078125-.1357421875-.4816894531-.8500976562-.8247070312-.9775390625-.884765625-.2915039062-.1374511719-.513671875-.162109375-.8720703125-.2236328125-6.1767578125-1.05859375-15.2182617188,5.9929199219-17.0263671875,12.0258789062-.3588867188,1.1979980469-.67578125,3.4262695312-.2705078125,4.6057128906.12890625.3764648438.5708007812,1.9770507812,2.0434570312,3.3591308594,1.4721679688,1.3818359375,3.4174804688,2.1237792969,5.3833007812,2.904296875-3.1245117188,3.486328125-7.587890625,7.2006835938-9.0190429688,11.8581542969-.4404296875,1.43359375-1.17578125,5.2180175781-1.3276367188,6.7219238281-.517578125,5.1306152344,1.1801757812,10.849609375-.716796875,15.8154296875-1.1484375,3.0068359375-5.197265625,3.904296875-7.3955078125,5.8562011719-1.4526367188,1.1762695312-2.3735351562,2.9333496094-2.501953125,3.1682128906-1.541015625,2.8168945312-1.1791992188,8.7783203125-.6235351562,12.0173339844.79296875,4.6184082031,4.4311523438,16.0708007812,6.2890625,20.4526367188,4.3344726562,10.2238769531,11.7177734375,9.8972167969,20.5146484375,13.4709472656,5.759765625,2.33984375,11.5278320312,5.6228027344,16.21484375,9.8244628906.7006835938.6279296875,4.5366210938,5.1154785156,5.7866210938,6.0009765625.1782226562.1264648438,1.3139648438.384765625,1.6616210938.1513671875.0478515625-.0319824219.4995117188-.7509765625.2260742188-1.3620605469-.9145507812-2.0434570312-3.7700195312-6.087890625-4.251953125-6.5920410156-6.4135742188-6.7084960938-14.71484375-10.3015136719-23.1791992188-13.2551269531-6.2241210938-2.1721191406-10.3403320312-1.3854980469-13.7797851562-8.4553222656-2.2333984375-4.5910644531-7.4287109375-18.9025878906-7.671875-23.6667480469-.1118164062-2.1967773438.0634765625-5.1062011719,1.0629882812-7.0241699219,2.5546875-4.90234375,9.0498046875-4.8161621094,10.7797851562-10.8181152344,2.8774414062-9.98046875-3.0400390625-16.2761230469,5.138671875-26.658203125,1.2514648438-1.5886230469,6.0791015625-6.9543457031,7.8500976562-7.2973632812,3.3974609375-.6574707031,9.3510742188-.1108398438,12.5615234375,1.2412109375,5.66796875,2.3874511719,7.0537109375,10.3854980469,12.5756835938,13.19921875,3.7924804688,1.9321289062,8.1801757812,2.2492675781,12.248046875,1.0715332031,1.1645507812-.3371582031,6.0190429688-2.4060058594,2.5083007812-2.8369140625Z"/>
      <path class="cls-2" d="M172.8885876537,127.3850772932c-3.5986328125-2.966796875-6.8037109375-5.4128417969-11.375-6.921875-4.0737304688-1.3444824219-15.4262695312-3.5856933594-18.7583007812-.267578125-.5732421875.5705566406-.703125.9057617188-.5615234375,1.0844726562.3383789062.4267578125,2.2250976562-.0380859375,3.3125-.3129882812.3627929688-.091796875,1.7143554688-.25,2.2241210938-.2683105469,5.373046875-.1936035156,12.1240234375,1.1398925781,16.7299804688,3.6528320312,8.7905273438,4.7966308594,13.5078125,12.7463378906,19.896484375,20.1828613281.0092773438.0104980469.0185546875.0197753906.02734375.0302734375.4790039062-.8872070312.94140625-1.7846679688,1.3935546875-2.6882324219-3.9633789062-4.6567382812-7.4077148438-9.9719238281-12.8891601562-14.4914550781Z"/>
      <path class="cls-2" d="M133.611732185,92.4292667463c-.5073242188.1921386719-.97265625.326171875-1.412109375.638671875q-.0087890625.0075683594-.0229492188.0197753906c-.1416015625.1267089844-.2690429688.2680664062-.3930664062.4130859375l-.0107421875.3447265625c.0146484375.0356445312.009765625.0766601562.015625.1142578125.037109375.0583496094.060546875.1223144531.0844726562.1875.0288085938.0285644531.0551757812.0588378906.0849609375.0859375.0595703125.0310058594.1489257812.0583496094.0434570312.0263671875,0,.0002441406.0004882812.0004882812.0009765625.0004882812.1005859375.0329589844.1997070312.072265625.3051757812.0900878906.1572265625.0065917969.3134765625.0124511719.4697265625.0307617188,5.259765625-.0598144531,9.3100585938-.0903320312,8.9150390625,7.080078125-.1850585938,3.3623046875-2.9931640625,5.2414550781-4.0361328125,8.0168457031-.0336914062.0893554688-.076171875.1767578125-.0952148438.2712402344-.0454101562.2275390625-.0092773438.3642578125.1020507812.5871582031.02734375.0541992188.197265625.201171875.2348632812.2299804688.5971679688.53515625,1.2158203125.5190429688,1.6171875.4111328125.2778320312-.0747070312.5034179688-.2697753906.5341796875-.302734375,7.546875-8.1328125,5.1801757812-20.7526855469-6.4375-18.2453613281Z"/>
      <path class="cls-2" d="M87.0389782787,86.5171573713c-1.4829101562.2548828125-3.056640625.3762207031-4.474609375-.8110351562-.5732421875-.4797363281-1.90234375-2.9025878906-2.8188476562-2.8581542969-1.1938476562.0573730469.2124023438,3.1059570312.552734375,3.658203125,1.9155273438,3.1069335938,5.7524414062,2.6979980469,7.8413085938,2.3349609375,1.2958984375-.2250976562,5.3930664062-1.8603515625,4.375-3.6154785156-.037109375-.0646972656-.103515625-.125-.1689453125-.158203125-1.7939453125-.9094238281-3.2231445312,1.0915527344-5.306640625,1.4497070312Z"/>
    </g>
  </g>
</svg>